<?xml version="1.0" encoding="UTF-8"?>
<svg id="Layer_2" data-name="Layer 2" xmlns="http://www.w3.org/2000/svg" viewBox="0 0 500 500">
  <defs>
    <style>
      .cls-1 {
        fill: #00d1a0;
      }

      .cls-1, .cls-2 {
        stroke-width: 0px;
      }

      .cls-2 {
        fill: #f9fafb;
      }
    </style>
  </defs>
  <g id="Layer_1-2" data-name="Layer 1">
    <rect class="cls-2" y="0" width="500" height="500" rx="135.12" ry="135.12"/>
    <path class="cls-1" d="M211.29,389.91c-4.09-8.61-23.8-52.29-3.44-91.83,4.08-7.92,9.15-14.49,14.48-19.91,7.06,6.67,15.53,16.95,20.03,31.25,9.32,29.61-2.31,64.14-28.71,90-9.83-6.03-27.02-18.55-37.88-40.54,0,0-6.25-12.65-8.69-28.23-4.95-31.62,17.01-99.08,62.49-178.06,5.56,4.3,13.23,11.1,18.95,19.89,1.88,2.9,3.4,5.78,3.97,9.54.32,2.08.6,6.1-1.69,12.31-4.99,13.52-18.53,27.52-21.23,30.28,6.88,8.35,13.75,16.69,20.63,25.04,6.09-1.18,15.2-1.87,24.01,2.34,21.84,10.44,24.16,42.56,24.85,52.12,4.27,59-64.24,105.46-72.63,110.99,17.25-1.98,53.28-8.61,85.17-36.19,33.01-28.55,72.39-88.87,47.53-132.46-17.65-30.95-58.52-37.38-70.57-38.85,3.14-3.85,5.16-7.75,6.39-11.58,14.73-45.81-75.47-108.13-79.86-111.11-85.29,117.49-104.77,237.26-55.25,293.76,9.88,11.27,26.5,24.58,55.62,32.43,4.74-2.98,59.76-38.72,57.3-88.4-1.15-23.31-14.75-45.33-21.47-56.22-10.37-16.79-21.88-28.73-30.4-36.43-37.24,35.92-52.47,83.77-37.88,122.09,6.5,17.07,17.81,29.37,28.29,37.79Z"/>
  </g>
</svg>