<?xml version="1.0" encoding="UTF-8"?>
<svg id="Layer_2" data-name="Layer 2" xmlns="http://www.w3.org/2000/svg" viewBox="0 0 655.31 151.63">
  <defs>
    <style>
      .cls-1 {
        fill: #609960;
      }

      .cls-1, .cls-2 {
        stroke-width: 0px;
      }

      .cls-2 {
        fill: #00d1a0;
      }
    </style>
  </defs>
  <g id="Layer_1-2" data-name="Layer 1">
    <path class="cls-2" d="M201.52,148.24v-3.43l53.45-81.68h-47.4v-23.8h89.75v3.43l-53.25,81.68h51.23v23.8h-93.78Z"/>
    <path class="cls-2" d="M321.52,24.2V0h27.43v24.2h-27.43ZM321.52,148.24V39.33h27.43v108.91h-27.43Z"/>
    <path class="cls-2" d="M379,148.24V39.33h24.2v36.1h3.43v72.81h-27.63ZM444.75,148.24v-64.34c0-7.19-1.7-12.79-5.09-16.79-3.4-4-8.08-6-14.07-6s-10.3,1.97-13.77,5.9c-3.46,3.93-5.19,9.03-5.19,15.28l-11.5-8.07c0-7.13,1.78-13.51,5.35-19.16,3.56-5.65,8.35-10.12,14.37-13.41,6.02-3.29,12.76-4.94,20.22-4.94,8.54,0,15.55,1.82,21.03,5.45,5.48,3.63,9.53,8.47,12.15,14.52,2.62,6.05,3.93,12.71,3.93,19.97v71.6h-27.43ZM510.3,148.24v-64.34c0-7.19-1.7-12.79-5.09-16.79-3.4-4-8.09-6-14.07-6-3.83,0-7.16.89-9.98,2.67-2.82,1.78-5.03,4.27-6.6,7.46-1.58,3.19-2.37,6.88-2.37,11.04l-11.5-7.66c0-7.46,1.76-14.05,5.29-19.77,3.53-5.71,8.27-10.17,14.22-13.36,5.95-3.19,12.56-4.79,19.82-4.79,12.44,0,21.83,3.68,28.19,11.04,6.35,7.36,9.53,16.99,9.53,28.89v71.6h-27.43Z"/>
    <path class="cls-2" d="M594.2,148.24c-7.8,0-14.41-1.5-19.82-4.49-5.41-2.99-9.51-6.99-12.3-12-2.79-5.01-4.18-10.54-4.18-16.59,0-5.04.77-9.65,2.32-13.82,1.55-4.17,4.05-7.85,7.51-11.04,3.46-3.19,8.12-5.86,13.97-8.02,4.03-1.48,8.84-2.79,14.42-3.93,5.58-1.14,11.9-2.23,18.96-3.28,7.06-1.04,14.82-2.2,23.3-3.48l-9.88,5.45c0-6.45-1.55-11.19-4.64-14.22-3.09-3.03-8.27-4.54-15.53-4.54-4.03,0-8.24.98-12.61,2.92-4.37,1.95-7.43,5.41-9.18,10.39l-24.81-7.87c2.76-9.01,7.93-16.34,15.53-21.98,7.6-5.65,17.95-8.47,31.06-8.47,9.61,0,18.15,1.48,25.61,4.44,7.46,2.96,13.11,8.07,16.94,15.33,2.15,4.03,3.43,8.07,3.83,12.1.4,4.03.61,8.54.61,13.51v66.56h-24v-22.39l3.43,4.64c-5.31,7.33-11.04,12.62-17.19,15.88-6.15,3.26-13.93,4.89-23.34,4.89ZM600.05,126.66c5.04,0,9.29-.89,12.76-2.67,3.46-1.78,6.22-3.82,8.27-6.1,2.05-2.28,3.44-4.2,4.18-5.75,1.41-2.96,2.23-6.4,2.47-10.34.24-3.93.35-7.21.35-9.83l8.07,2.02c-8.13,1.35-14.72,2.47-19.77,3.38s-9.11,1.73-12.2,2.47c-3.09.74-5.82,1.55-8.17,2.42-2.69,1.08-4.86,2.24-6.5,3.48-1.65,1.25-2.86,2.61-3.63,4.08-.77,1.48-1.16,3.13-1.16,4.94,0,2.49.62,4.62,1.87,6.4,1.24,1.78,3.01,3.14,5.29,4.08,2.28.94,5.01,1.41,8.17,1.41Z"/>
    <path class="cls-1" d="M69.95,144.15c-.22.63-.43,1.27-.63,1.92-.22.72-.42,1.44-.62,2.17.2-.73.4-1.45.62-2.17.2-.65.41-1.29.63-1.92Z"/>
    <path class="cls-1" d="M71.96,147.66c-.09.19-.18.39-.26.58.09-.2.17-.39.26-.58Z"/>
    <path class="cls-1" d="M71.3,147.33c-.12.3-.25.6-.37.91.12-.31.24-.61.37-.91Z"/>
    <path class="cls-1" d="M70.61,147.08c-.15.38-.29.77-.43,1.16.14-.39.28-.78.43-1.16Z"/>
    <path class="cls-2" d="M155.74,36.1c.62,21.32.46,39.9,0,55.26-.27,9.05-.72,19.39-8.07,25.66-6.04,5.16-14.16,5.38-15.13,5.4-2.27.03-8.24.12-13.56-3.93-4.03-3.07-5.72-7.02-6.91-9.78-1.77-4.13-2.26-7.85-2.4-10.24,2.64-8.29,5.09-20.25,3.14-34-.75-5.29-2.04-10.09-3.67-14.41-2.41-4.65-4.83-9.3-7.24-13.96-6.55-9.66-13.76-14.95-15.52-16.2.33.65.67,1.3,1,1.95-1.41,3.04-9.2,20.41-.91,32.97.88,1.33,2,2.7,3.44,4.02.63-2.34,1.27-5.33,1.61-8.84,1.1-11.49-1.92-19.47-1.64-19.55.49-.13,10.96,23.53,7.96,43.08-.54,3.51-2.6,14.01-7.26,26.3,0,0,0,.02,0,.02-2.86-3.77-5.59-8.18-7.82-13.31-11.42-26.23-1.81-52.6,1.86-61.41-3.37,3.35-6.89,7.62-9.93,12.93-6.62-3.19-14.1-4.79-22.44-4.79-9.48,0-17.57,2.12-24.29,6.35-.1-12.2-.21-24.4-.31-36.6H0v145.21h24.2v-9.29c.75.6,1.52,1.17,2.32,1.73,7.26,5.04,16.3,7.56,27.13,7.56,10.02,0,18.79-2.52,26.32-7.56,3.66-2.45,6.93-5.34,9.81-8.65,0,0,0,.01.01.02.02-.02.04-.04.05-.05.2.31.4.62.6.93,2.99,4.44,7.18,8.1,12.56,10.99,5.38,2.89,12.34,4.34,20.87,4.34,10.69,0,19.55-2.32,26.57-6.96,3.3-2.18,6.2-4.68,8.72-7.49v11.23h24.2V36.1h-27.63ZM73.11,104.24c-.3,1.09-.63,2.17-1.01,3.21-1.82,5.01-4.61,8.99-8.37,11.95-3.77,2.96-8.61,4.44-14.52,4.44s-11.01-1.38-14.67-4.13c-3.66-2.76-6.3-6.62-7.92-11.6-1.61-4.97-2.42-10.76-2.42-17.34s.81-12.37,2.42-17.35c1.61-4.97,4.18-8.84,7.71-11.6,3.53-2.76,8.15-4.13,13.87-4.13,6.12,0,11.14,1.5,15.08,4.49,1.2.91,2.29,1.93,3.29,3.02-.95,12.7,1.37,26.18,6.54,39.05,0,0,0,0,0,0Z"/>
    <path class="cls-1" d="M68.52,146.66c-.13.52-.26,1.05-.38,1.58.12-.53.25-1.05.38-1.58Z"/>
    <path class="cls-2" d="M67.97,146.11c-.15.71-.3,1.42-.43,2.13.13-.71.28-1.43.43-2.13Z"/>
    <path class="cls-2" d="M67.44,146.63c-.09.54-.18,1.07-.26,1.61.08-.54.17-1.08.26-1.61Z"/>
    <path class="cls-1" d="M67.04,146.93c-.06.44-.11.87-.17,1.31.05-.44.11-.87.17-1.31Z"/>
    <path class="cls-1" d="M66.76,146.19c-.07.68-.13,1.36-.18,2.05.05-.68.11-1.37.18-2.05Z"/>
    <path class="cls-1" d="M114.93,140.88s.06.09.09.14c-.03-.05-.06-.09-.09-.14h0Z"/>
    <path class="cls-1" d="M122.09,150.93c.18.23.35.46.53.69-.18-.23-.35-.46-.53-.69Z"/>
    <path class="cls-1" d="M117.1,144.13c.12.17.23.34.35.51-.12-.17-.23-.34-.35-.51Z"/>
    <path class="cls-1" d="M119.53,147.54c.16.21.31.43.46.64-.16-.21-.31-.43-.46-.64Z"/>
  </g>
</svg>