<?xml version="1.0" encoding="UTF-8"?>
<svg id="Layer_2" data-name="Layer 2" xmlns="http://www.w3.org/2000/svg" viewBox="0 0 278.77 393.48">
  <defs>
    <style>
      .cls-1 {
        fill: #fff;
        stroke-width: 0px;
      }
    </style>
  </defs>
  <g id="Layer_1-2" data-name="Layer 1">
    <path class="cls-1" d="M93.25,363.46c-4.87-10.26-28.36-62.31-4.1-109.44,4.86-9.44,10.91-17.27,17.25-23.72,8.41,7.95,18.5,20.2,23.86,37.23,11.1,35.29-2.75,76.43-34.22,107.25-11.72-7.18-32.2-22.11-45.14-48.3,0,0-7.44-15.07-10.35-33.64-5.9-37.68,20.26-118.08,74.47-212.19,6.62,5.12,15.77,13.22,22.58,23.71,2.24,3.46,4.05,6.89,4.74,11.37.38,2.48.72,7.26-2.01,14.66-5.94,16.11-22.08,32.8-25.3,36.08,8.19,9.95,16.39,19.89,24.58,29.84,7.26-1.41,18.12-2.22,28.61,2.79,26.02,12.45,28.79,50.71,29.61,62.11,5.08,70.31-76.56,125.67-86.54,132.26,20.55-2.35,63.49-10.26,101.5-43.13,39.34-34.02,86.27-105.91,56.64-157.85-21.03-36.88-69.74-44.55-84.1-46.29,3.74-4.59,6.15-9.24,7.62-13.8C210.51,77.82,103.01,3.55,97.78,0-3.86,140.01-27.07,282.74,31.94,350.06c11.77,13.44,31.58,29.29,66.27,38.64,5.64-3.56,71.22-46.14,68.29-105.35-1.37-27.78-17.57-54.01-25.59-66.99-12.36-20.01-26.08-34.24-36.23-43.42-44.38,42.8-62.52,99.82-45.14,145.49,7.74,20.34,21.22,35,33.71,45.03Z"/>
  </g>
</svg>